<?xml version="1.0" encoding="UTF-8"?>
<svg id="Livello_1" xmlns="http://www.w3.org/2000/svg" version="1.1" viewBox="0 0 566.93 112.77">
  <!-- Generator: Adobe Illustrator 30.2.1, SVG Export Plug-In . SVG Version: 2.1.1 Build 1)  -->
  <defs>
    <style>
      .st0 {
        fill: #100c08;
      }

      .st1 {
        fill: #fff;
      }

      .st2 {
        fill: #ffed00;
      }

      .st3 {
        fill: #e6007e;
      }

      .st4 {
        fill: #009fe3;
      }
    </style>
  </defs>
  <g>
    <path class="st0" d="M50.82,81.85l-.16-29.72-12.36,23.85h-8.46l-12.36-22.83v28.69H0V16.63h15.78l18.54,34.75,18.05-34.75h15.78l.16,65.21h-17.48Z"/>
    <path class="st0" d="M124.9,65.26v16.58h-47.33V16.63h46.27v16.58h-27.4v7.64h24.07v15.84h-24.07v8.57h28.46Z"/>
    <path class="st0" d="M132.3,16.63h28.05c6.34,0,11.94,1.32,16.79,3.96,4.85,2.64,8.62,6.41,11.3,11.32,2.68,4.91,4.03,10.68,4.03,17.33s-1.34,12.42-4.03,17.33c-2.68,4.91-6.45,8.68-11.3,11.32-4.85,2.64-10.45,3.96-16.79,3.96h-28.05V16.63ZM159.55,64.7c4.12,0,7.41-1.35,9.88-4.05,2.47-2.7,3.7-6.51,3.7-11.41s-1.23-8.71-3.7-11.41c-2.47-2.7-5.76-4.05-9.88-4.05h-8.05v30.93h8.05Z"/>
    <path class="st0" d="M199.47,16.63h19.19v65.21h-19.19V16.63Z"/>
    <path class="st0" d="M266.72,70.48h-21.63l-3.82,11.37h-19.52l24.88-65.21h18.87l24.88,65.21h-19.84l-3.82-11.37ZM261.44,54.64l-5.53-16.4-5.53,16.4h11.06Z"/>
  </g>
  <g>
    <path class="st0" d="M349.05,44.63c-4.46,1.57-5.61,6.47-3.43,14.69.97,3.06,3.87,4.97,8.71,5.71,9.97,1.29,18.76.47,26.39-2.45,1.02-1.03,2.01-1.22,2.98-.56l5.03,11.55c.23.86.19,1.72-.14,2.58-17.5,5.04-34.65,4.41-51.43-1.89-5.36-2.32-8.41-11.37-9.12-27.14.39-13.71,3.53-22.26,9.4-25.64,16.21-7.24,33.16-7.7,50.84-1.37.9.52,1.34,1.52,1.32,3.01l-7.91,22.2c-.58.46-1.24.7-1.98.73-7.79-3.64-18.01-4.11-30.66-1.42Z"/>
    <path class="st0" d="M435.24,44.11c.14-3.24.36-6.26.66-9.06.3-5.87-4-8.27-12.9-7.22-2.82.69-4.24,1.85-4.27,3.48.07,2.58.45,4.77,1.14,6.57.35.6.18,1.12-.49,1.55-8.65-.26-16.59,0-23.83.77-.81.09-1.23-.26-1.25-1.03-.28-4.21-.3-8.25-.07-12.11.02-4.52,3.26-8.25,9.71-11.17,14.57-4.49,29.91-4.11,46.02,1.16,7.54,2.89,9.85,13.54,6.94,31.95-.53,6.59-.39,12.08.42,16.49.76,2.75,1.76,4.51,2.98,5.28.37.52.5,1.03.38,1.55-3.45,4.15-9.26,7.13-17.44,8.93-.81-.09-1.34-.52-1.6-1.29-.49-.57-1.07-1.46-1.77-2.66-6.1,1.89-16.73,2.58-31.87,2.06-5.2-.72-8.67-2.98-10.4-6.79-2.13-3.84-2.59-10.68-1.39-20.53,1.06-4.9,5.79-7.53,14.19-7.9,7.61-.74,15.88-.76,24.83-.04ZM435.41,62.58c-.19-1.57-.3-3.21-.35-4.9v-3.22c-1.32-1.72-6.72-2-16.2-.86-2.77.6-4.42,1.72-4.92,3.35-.88,4.41-.07,6.84,2.43,7.3,10.52.49,16.87-.07,19.04-1.68Z"/>
    <path class="st0" d="M466.38,77.48c-1.39-18.87-2-31.54-1.84-38.01,0-14.89,5.77-22.42,17.31-22.59h26.57c.21.17.39.54.55,1.12,0,10.31-.27,19.66-.8,28.05-.23.46-.5.79-.8.99-5.78-.57-11.32-.73-16.61-.47-8.44.29-12.24,5.58-11.41,15.89.25,4.87.66,9.88,1.21,15.03,0,.37-.19.8-.55,1.29-3.86.2-7.86.3-12,.3-.69-.4-1.24-.93-1.63-1.59Z"/>
    <path class="st0" d="M534.54,38.87c-.05,4.67-.08,9.32-.1,13.96.19.97.8,1.52,1.84,1.63,7.88-.11,14.31-.7,19.28-1.76,6.71-1.6,10.34-1.72,10.89-.34.62,10.19.65,18.02.07,23.49-.09.6-.47,1.05-1.14,1.33-19.19,5.47-34.3,6.13-45.33,1.98-3.1-1.89-4.87-6.93-5.31-15.12-.39-13.26.4-33.27,2.39-60.04l.66-.73c4.81-2.43,10.21-3.51,16.2-3.22.49.17.77.42.87.73-.05,5.9-.06,11.37-.03,16.41.14,2.72,1.65,3.78,4.54,3.18,5.53-.86,10.84-1.29,15.95-1.29.79.37,1.34.9,1.66,1.59.49,7.59.61,13,.38,16.23-.32.69-.84,1.17-1.56,1.46-7.49.69-14.58.86-21.26.52Z"/>
  </g>
  <g>
    <g>
      <path class="st1" d="M1.26,99.77h135.71v13H1.26v-13Z"/>
      <rect class="st4" x="1.26" y="99.77" width="135.71" height="13"/>
    </g>
    <g>
      <path class="st1" d="M143.5,99.77h135.71v13h-135.71v-13Z"/>
      <rect class="st3" x="143.5" y="99.77" width="135.71" height="13"/>
    </g>
    <g>
      <path class="st1" d="M285.73,99.77h135.71v13h-135.71v-13Z"/>
      <rect class="st2" x="285.73" y="99.77" width="135.71" height="13"/>
    </g>
    <g>
      <path class="st1" d="M563.67,112.77h-135.71v-13h135.71v13Z"/>
      <rect class="st0" x="427.96" y="99.77" width="135.71" height="13"/>
    </g>
  </g>
</svg>