<?xml version="1.0" encoding="UTF-8"?>
<svg id="Livello_1" xmlns="http://www.w3.org/2000/svg" version="1.1" viewBox="0 0 726.39 337.76">
  <!-- Generator: Adobe Illustrator 30.2.1, SVG Export Plug-In . SVG Version: 2.1.1 Build 1)  -->
  <defs>
    <style>
      .st0 {
        fill: #100c08;
      }

      .st1 {
        fill: #ffed00;
      }

      .st2 {
        fill: #e6007e;
      }

      .st3 {
        fill: #009fe3;
      }
    </style>
  </defs>
  <path class="st0" d="M706.03,314.06l-6.54,14.96h5.13l1.01-2.61h5.68l1,2.61h5.22l-6.54-14.96h-4.96ZM707.01,322.78l1.45-3.76,1.46,3.76h-2.91Z"/>
  <g>
    <path class="st0" d="M419.01,320.4c-.78-.28-1.74-.52-2.88-.73-.88-.17-1.52-.33-1.9-.48-.39-.15-.58-.37-.58-.67,0-.63.65-.94,1.94-.94s2.7.37,4.17,1.11l1.52-3.65c-.76-.42-1.63-.75-2.62-.97-.99-.22-2-.33-3.03-.33-1.49,0-2.77.22-3.81.66-1.05.44-1.83,1.05-2.36,1.82-.53.78-.79,1.63-.79,2.57,0,1.08.29,1.94.86,2.57.57.63,1.24,1.09,2.01,1.37.77.28,1.73.54,2.89.78.9.18,1.54.36,1.93.51.39.15.59.39.59.7,0,.27-.15.47-.45.61-.3.13-.8.2-1.49.2-.81,0-1.66-.12-2.54-.37-.88-.25-1.68-.58-2.39-.99l-1.62,3.67c.75.48,1.72.85,2.89,1.12,1.17.28,2.38.42,3.62.42,1.5,0,2.77-.22,3.82-.67,1.05-.45,1.83-1.06,2.36-1.82.53-.76.79-1.61.79-2.55,0-1.08-.29-1.94-.87-2.56-.58-.63-1.26-1.08-2.04-1.36"/>
    <polygon class="st0" points="465.48 317.97 469.86 317.97 469.86 329.02 474.9 329.02 474.9 317.97 479.29 317.97 479.29 314.06 465.48 314.06 465.48 317.97"/>
    <polygon class="st0" points="595.01 314.06 590.27 322.03 585.4 314.06 581.25 314.06 581.25 329.02 585.85 329.02 585.85 322.44 589.09 327.67 591.32 327.67 594.57 322.2 594.61 329.02 599.2 329.02 599.16 314.06 595.01 314.06"/>
    <path class="st0" d="M527.83,314.06l-6.53,14.96h5.12l1.01-2.61h5.69l1,2.61h5.22l-6.54-14.96h-4.96ZM528.81,322.78l1.45-3.76,1.46,3.76h-2.91Z"/>
    <path class="st0" d="M653.65,314.74c-1.03-.46-2.23-.68-3.61-.68h-7.2v14.96h5.04v-3.68h2.16c1.38,0,2.59-.22,3.61-.68,1.03-.46,1.82-1.11,2.37-1.96.55-.86.83-1.85.83-2.99s-.28-2.14-.83-2.99c-.56-.85-1.35-1.51-2.37-1.96M651.26,320.99c-.34.31-.85.46-1.54.46h-1.84v-3.5h1.84c.68,0,1.2.15,1.54.46.34.31.51.74.51,1.29s-.17.99-.51,1.29"/>
    <path class="st0" d="M17.46,317.8c1.25,0,2.34.58,3.27,1.75l3.18-2.84c-.74-.97-1.68-1.71-2.82-2.23-1.14-.51-2.44-.77-3.89-.77-1.58,0-3.01.33-4.27,1-1.27.66-2.26,1.59-2.98,2.78-.72,1.19-1.08,2.54-1.08,4.05s.36,2.86,1.08,4.05c.72,1.19,1.71,2.11,2.98,2.77,1.27.66,2.69.99,4.27.99,1.45,0,2.75-.25,3.89-.77,1.14-.51,2.08-1.25,2.82-2.22l-3.18-2.84c-.93,1.17-2.02,1.75-3.27,1.75-1.05,0-1.9-.34-2.54-1.01-.64-.68-.96-1.59-.96-2.73s.32-2.05.96-2.72c.64-.68,1.49-1.02,2.54-1.02"/>
    <polygon class="st0" points="79.54 317.87 79.54 314.06 67.38 314.06 67.38 329.02 79.82 329.02 79.82 325.21 72.34 325.21 72.34 323.25 78.66 323.25 78.66 319.62 72.34 319.62 72.34 317.87 79.54 317.87"/>
    <polygon class="st0" points="129.07 322.23 134.75 329.02 138.9 329.02 138.9 314.06 133.98 314.06 133.98 320.85 128.3 314.06 124.15 314.06 124.15 329.02 129.07 329.02 129.07 322.23"/>
    <polygon class="st0" points="193.97 329.02 193.97 317.97 198.35 317.97 198.35 314.06 184.54 314.06 184.54 317.97 188.92 317.97 188.92 329.02 193.97 329.02"/>
    <path class="st0" d="M257.18,322.5c.48-.8.72-1.73.72-2.8,0-1.14-.28-2.14-.83-2.99-.56-.86-1.35-1.51-2.37-1.96-1.03-.46-2.23-.69-3.61-.69h-7.2v14.96h5.04v-3.76h1.37l2.54,3.76h5.39l-3.14-4.62c.91-.47,1.61-1.11,2.09-1.9M252.31,321c-.34.31-.85.46-1.54.46h-1.84v-3.51h1.84c.68,0,1.19.15,1.54.46.34.31.51.74.51,1.29s-.17.99-.51,1.3"/>
    <path class="st0" d="M305.39,328.35c1.28.67,2.73,1.01,4.34,1.01s3.06-.34,4.34-1.01c1.28-.67,2.29-1.6,3.01-2.79.73-1.19,1.09-2.53,1.09-4.03s-.36-2.84-1.09-4.03c-.73-1.19-1.73-2.12-3.01-2.78-1.28-.67-2.73-1.01-4.34-1.01s-3.05.34-4.34,1.01c-1.28.67-2.29,1.6-3.01,2.78-.73,1.19-1.09,2.53-1.09,4.03s.36,2.84,1.09,4.03c.72,1.19,1.73,2.12,3.01,2.79M306.82,319.56c.3-.56.7-1,1.21-1.3.51-.31,1.07-.46,1.7-.46s1.19.15,1.7.46c.51.3.91.74,1.21,1.3.3.56.45,1.22.45,1.98s-.15,1.41-.45,1.97c-.3.56-.7,1-1.21,1.3-.51.31-1.07.46-1.7.46s-1.19-.15-1.7-.46c-.51-.3-.91-.74-1.21-1.3-.3-.56-.45-1.22-.45-1.97s.15-1.41.45-1.98"/>
    <path class="st0" d="M157.93,246.69h30.28v-22.07h12.96c8.3,0,15.53-1.37,21.69-4.1,6.16-2.74,10.9-6.68,14.24-11.81,3.34-5.13,5.01-11.12,5.01-17.97s-1.67-12.83-5.01-17.96c-3.34-5.13-8.08-9.06-14.24-11.8-6.16-2.74-13.39-4.11-21.69-4.11h-43.24v89.82ZM188.21,180.22h11.04c4.1,0,7.18.92,9.24,2.76,2.06,1.84,3.08,4.43,3.08,7.76s-1.03,5.93-3.08,7.76c-2.05,1.84-5.13,2.76-9.24,2.76h-11.04v-21.04Z"/>
    <path class="st0" d="M252.12,156.86v89.82h30.28v-22.58h8.22l15.26,22.58h32.33l-18.86-27.72c5.47-2.82,9.67-6.63,12.58-11.42,2.9-4.79,4.36-10.39,4.36-16.81,0-6.84-1.66-12.83-5-17.96-3.34-5.13-8.09-9.07-14.25-11.8-6.15-2.74-13.39-4.11-21.69-4.11h-43.23ZM305.75,190.74c0,3.34-1.03,5.93-3.08,7.76-2.05,1.84-5.13,2.76-9.24,2.76h-11.03v-21.04h11.03c4.11,0,7.19.92,9.24,2.76,2.05,1.84,3.08,4.43,3.08,7.76"/>
    <rect class="st0" x="347.71" y="156.86" width="30.28" height="89.82"/>
    <polygon class="st0" points="451.64 197.67 417.51 156.86 392.62 156.86 392.62 246.69 422.13 246.69 422.13 205.88 456.26 246.69 481.16 246.69 481.16 156.86 451.64 156.86 451.64 197.67"/>
    <polygon class="st0" points="515.29 246.69 545.58 246.69 545.58 180.35 571.88 180.35 571.88 156.86 488.99 156.86 488.99 180.35 515.29 180.35 515.29 246.69"/>
    <polygon class="st0" points="58.77 73.83 93.31 130.18 110.3 130.18 145.03 71.89 145.42 143.49 180.54 143.49 180.16 8.4 148.7 8.4 102.38 86.37 54.91 8.4 23.45 8.4 23.45 143.49 58.77 143.49 58.77 73.83"/>
    <polygon class="st0" points="316.02 113.96 245.38 113.96 245.38 89.26 305.4 89.26 305.4 60.7 245.38 60.7 245.38 37.93 313.5 37.93 313.5 8.4 207.56 8.4 207.56 143.49 316.02 143.49 316.02 113.96"/>
    <path class="st0" d="M440.49,135.2c11.45-5.53,20.32-13.38,26.63-23.54,6.3-10.16,9.46-22.07,9.46-35.71s-3.15-25.53-9.46-35.7c-6.3-10.16-15.18-18.01-26.63-23.54-11.45-5.53-24.58-8.3-39.37-8.3h-63.88v135.09h63.88c14.8,0,27.92-2.76,39.37-8.3M375.45,113V38.89h24.12c11.58,0,20.87,3.29,27.88,9.84,7.02,6.56,10.52,15.63,10.52,27.21s-3.5,20.65-10.52,27.22c-7.01,6.56-16.31,9.84-27.88,9.84h-24.12Z"/>
    <rect class="st0" x="496.64" y="8.4" width="38.21" height="135.09"/>
    <path class="st0" d="M595.45,117.25h57.12l10.62,26.24h39.75l-59.82-135.09h-37.63l-59.63,135.09h38.98l10.61-26.24ZM624.02,45.84l17.37,43.23h-34.74l17.37-43.23Z"/>
    <rect class="st3" x="10.99" y="288.48" width="173.84" height="8.7"/>
    <rect class="st2" x="188.73" y="288.48" width="173.83" height="8.7"/>
    <rect class="st1" x="364.98" y="288.48" width="173.84" height="8.7"/>
    <rect class="st0" x="541.97" y="288.48" width="173.84" height="8.7"/>
  </g>
</svg>
