<svg viewBox="100 240 600 125" xmlns="http://www.w3.org/2000/svg">

 <g>
  <title>Layer 1</title>
  <!-- Generator: Adobe Illustrator 30.2.1, SVG Export Plug-In . SVG Version: 2.1.1 Build 1)  -->

  <g>
   <path fill="#ffffff" d="m167.3521,325.46304l-0.16,-29.72l-12.36,23.85l-8.46,0l-12.36,-22.83l0,28.69l-17.48,0l0,-65.21l15.78,0l18.54,34.75l18.05,-34.75l15.78,0l0.16,65.21l-17.48,0l-0.01,0.01z" class="st0"/>
   <path fill="#ffffff" d="m241.4321,308.87304l0,16.58l-47.33,0l0,-65.21l46.27,0l0,16.58l-27.4,0l0,7.64l24.07,0l0,15.84l-24.07,0l0,8.57l28.46,0z" class="st0"/>
   <path fill="#ffffff" d="m248.8321,260.24304l28.05,0c6.34,0 11.94,1.32 16.79,3.96c4.85,2.64 8.62,6.41 11.3,11.32c2.68,4.91 4.03,10.68 4.03,17.33s-1.34,12.42 -4.03,17.33c-2.68,4.91 -6.45,8.68 -11.3,11.32c-4.85,2.64 -10.45,3.96 -16.79,3.96l-28.05,0l0,-65.22zm27.25,48.07c4.12,0 7.41,-1.35 9.88,-4.05c2.47,-2.7 3.7,-6.51 3.7,-11.41s-1.23,-8.71 -3.7,-11.41c-2.47,-2.7 -5.76,-4.05 -9.88,-4.05l-8.05,0l0,30.93l8.05,0l0,-0.01z" class="st0"/>
   <path fill="#ffffff" d="m316.0021,260.24304l19.19,0l0,65.21l-19.19,0l0,-65.21z" class="st0"/>
   <path fill="#ffffff" d="m383.2521,314.09304l-21.63,0l-3.82,11.37l-19.52,0l24.88,-65.21l18.87,0l24.88,65.21l-19.84,0l-3.82,-11.37zm-5.28,-15.84l-5.53,-16.4c-1.84333,5.46666 -3.68666,10.93333 -5.53,16.4l11.06,0z" class="st0"/>
  </g>
  <g>
   <path fill="#ffffff" d="m465.5821,288.24304c-4.46,1.57 -5.61,6.47 -3.43,14.69c0.97,3.06 3.87,4.97 8.71,5.71c9.97,1.29 18.76,0.47 26.39,-2.45c1.02,-1.03 2.01,-1.22 2.98,-0.56l5.03,11.55c0.23,0.86 0.19,1.72 -0.14,2.58c-17.5,5.04 -34.65,4.41 -51.43,-1.89c-5.36,-2.32 -8.41,-11.37 -9.12,-27.14c0.39,-13.71 3.53,-22.26 9.4,-25.64c16.21,-7.24 33.16,-7.7 50.84,-1.37c0.9,0.52 1.34,1.52 1.32,3.01l-7.91,22.2c-0.58,0.46 -1.24,0.7 -1.98,0.73c-7.79,-3.64 -18.01,-4.11 -30.66,-1.42z" class="st0"/>
   <path fill="#ffffff" d="m551.7721,287.72304c0.14,-3.24 0.36,-6.26 0.66,-9.06c0.3,-5.87 -4,-8.27 -12.9,-7.22c-2.82,0.69 -4.24,1.85 -4.27,3.48c0.07,2.58 0.45,4.77 1.14,6.57c0.35,0.6 0.18,1.12 -0.49,1.55c-8.65,-0.26 -16.59,0 -23.83,0.77c-0.81,0.09 -1.23,-0.26 -1.25,-1.03c-0.28,-4.21 -0.3,-8.25 -0.07,-12.11c0.02,-4.52 3.26,-8.25 9.71,-11.17c14.57,-4.49 29.91,-4.11 46.02,1.16c7.54,2.89 9.85,13.54 6.94,31.95c-0.53,6.59 -0.39,12.08 0.42,16.49c0.76,2.75 1.76,4.51 2.98,5.28c0.37,0.52 0.5,1.03 0.38,1.55c-3.45,4.15 -9.26,7.13 -17.44,8.93c-0.81,-0.09 -1.34,-0.52 -1.6,-1.29c-0.49,-0.57 -1.07,-1.46 -1.77,-2.66c-6.1,1.89 -16.73,2.58 -31.87,2.06c-5.2,-0.72 -8.67,-2.98 -10.4,-6.79c-2.13,-3.84 -2.59,-10.68 -1.39,-20.53c1.06,-4.9 5.79,-7.53 14.19,-7.9c7.61,-0.74 15.88,-0.76 24.83,-0.04l0.01,0.01zm0.17,18.47c-0.19,-1.57 -0.3,-3.21 -0.35,-4.9l0,-3.22c-1.32,-1.72 -6.72,-2 -16.2,-0.86c-2.77,0.6 -4.42,1.72 -4.92,3.35c-0.88,4.41 -0.07,6.84 2.43,7.3c10.52,0.49 16.87,-0.07 19.04,-1.68l0,0.01z" class="st0"/>
   <path fill="#ffffff" d="m582.9121,321.09304c-1.39,-18.87 -2,-31.54 -1.84,-38.01c0,-14.89 5.77,-22.42 17.31,-22.59l26.57,0c0.21,0.17 0.39,0.54 0.55,1.12c0,10.31 -0.27,19.66 -0.8,28.05c-0.23,0.46 -0.5,0.79 -0.8,0.99c-5.78,-0.57 -11.32,-0.73 -16.61,-0.47c-8.44,0.29 -12.24,5.58 -11.41,15.89c0.25,4.87 0.66,9.88 1.21,15.03c0,0.37 -0.19,0.8 -0.55,1.29c-3.86,0.2 -7.86,0.3 -12,0.3c-0.69,-0.4 -1.24,-0.93 -1.63,-1.59l0,-0.01z" class="st0"/>
   <path fill="#ffffff" d="m651.0721,282.48304c-0.05,4.67 -0.08,9.32 -0.1,13.96c0.19,0.97 0.8,1.52 1.84,1.63c7.88,-0.11 14.31,-0.7 19.28,-1.76c6.71,-1.6 10.34,-1.72 10.89,-0.34c0.62,10.19 0.65,18.02 0.07,23.49c-0.09,0.6 -0.47,1.05 -1.14,1.33c-19.19,5.47 -34.3,6.13 -45.33,1.98c-3.1,-1.89 -4.87,-6.93 -5.31,-15.12c-0.39,-13.26 0.4,-33.27 2.39,-60.04l0.66,-0.73c4.81,-2.43 10.21,-3.51 16.2,-3.22c0.49,0.17 0.77,0.42 0.87,0.73c-0.05,5.9 -0.06,11.37 -0.03,16.41c0.14,2.72 1.65,3.78 4.54,3.18c5.53,-0.86 10.84,-1.29 15.95,-1.29c0.79,0.37 1.34,0.9 1.66,1.59c0.49,7.59 0.61,13 0.38,16.23c-0.32,0.69 -0.84,1.17 -1.56,1.46c-7.49,0.69 -14.58,0.86 -21.26,0.52l0,-0.01z" class="st0"/>
  </g>
  <g>
   <g>
    <path fill="#fff" d="m117.7921,343.38304l135.71,0l0,13l-135.71,0l0,-13z" class="st1"/>
    <rect fill="#009fe3" height="13" width="135.71" y="343.38304" x="117.7921" class="st4"/>
   </g>
   <g>
    <path fill="#fff" d="m260.0321,343.38304l135.71,0l0,13l-135.71,0l0,-13z" class="st1"/>
    <rect fill="#e6007e" height="13" width="135.71" y="343.38304" x="260.0321" class="st3"/>
   </g>
   <g>
    <path fill="#fff" d="m402.2621,343.38304l135.71,0l0,13l-135.71,0l0,-13z" class="st1"/>
    <rect fill="#ffed00" height="13" width="135.71" y="343.38304" x="402.2621" class="st2"/>
   </g>
   <g>
    <path fill="#fff" d="m680.2021,356.38304l-135.71,0l0,-13l135.71,0l0,13z" class="st1"/>
    <rect fill="#100c08" height="13" width="135.71" y="343.38304" x="544.4921" class="st0"/>
   </g>
  </g>
 </g>
</svg>